<?xml version="1.0" encoding="utf-8"?>
<!-- Generator: Adobe Illustrator 26.0.0, SVG Export Plug-In . SVG Version: 6.00 Build 0)  -->
<svg version="1.1" id="hamburger" xmlns="http://www.w3.org/2000/svg" xmlns:xlink="http://www.w3.org/1999/xlink" x="0px" y="0px"
	 viewBox="0 0 256.4 127.1" style="enable-background:new 0 0 256.4 127.1;" xml:space="preserve">
<style type="text/css">
	.st0{fill:#573300;}
	.st1{fill:#E59F00;}
	.st2{fill:#BD441E;}
	.st3{fill:#5FB130;}
	.st4{fill:#F2CA8A;}
	.st5{fill:#F7E4A6;}
	.st6{fill:#CAC9C9;}
	.st7{fill:#E73E2E;}
	.st8{fill:#CECDCC;}
</style>
<g id="patty">
	<path id="patty_x5F_burger" class="st0" d="M22.8,76.7h224.7c2.2,0,4,1.8,4,4v24.1c0,2.2-1.8,4-4,4H22.8c-2.2,0-4-1.8-4-4V80.6
		C18.8,78.4,20.6,76.7,22.8,76.7z"/>
</g>
<g id="cheese">
	<path id="cheese_x5F_drips" class="st1" d="M251.4,80.8c0-0.4-0.1-0.8-0.2-1.2l0,0c-0.4-1.8-2.1-3.1-3.9-3H165c-1.6,0-1.6,0-3.6,0
		h-39.3c-1.1,0-1.5,0-2.4,0c-0.9,0-1.2,0-2.3,0H28.2c-5.6,0-2.1,0-2.7,0h0c-1.2,0-1.2,0-2.8,0c-2.2,0-3.9,1.8-3.8,4c0,0,0,0,0,0
		c0,0.4,0,0.8,0,1.4c0,0.1,0,0.3,0,0.4v12.8c0.4,0.2,0.8,0.3,1.2,0.3c1.5,0,2.7-1.2,2.7-2.7c0,0,0,0,0,0v-1.9
		c1.3-0.3,2.2-1.4,2.2-2.7v-1.7c0.2,0,0.3,0.1,0.5,0.1l0,0c1.2,0,2.2-0.6,2.8-1.6h5.4v1.9c0,1.8,1.4,3.2,3.2,3.2
		c1.8,0,3.2-1.4,3.2-3.2c0,0,0,0,0,0V85h8.3v4.3c0,1.8,1.4,3.2,3.2,3.3c1.6,0,2.9-1.1,3.2-2.7c0.1-0.3,0.1-0.5,0.1-0.8v-4h30.1v1.2
		c0,1.6,1.2,2.9,2.7,3.2v3.8c0.1,1.8,1.6,3.1,3.4,3c1.6-0.1,3-1.4,3-3v-3.7c0.8-0.6,1.3-1.6,1.3-2.6v-2h21.3c0.5,1.7,2.3,2.7,4,2.2
		c1-0.3,1.8-1.1,2.2-2.2h18.3v4.9c0,1.8,1.4,3.2,3.2,3.2c1.8,0,3.2-1.4,3.2-3.2V85h12.4c0.2,1.2,1,2.2,2.2,2.6v1.7
		c0,1.8,1.4,3.2,3.2,3.2c1.8,0,3.2-1.4,3.2-3.2V85h21.7c-0.1,0.3-0.1,0.6-0.1,0.9v5.2c0,1.8,1.4,3.2,3.2,3.2c1.8,0,3.2-1.4,3.2-3.2
		v-2.8c1.4-0.4,2.3-1.7,2.3-3.1V85h15v0.3c-0.1,1.8,1.3,3.3,3,3.4s3.3-1.3,3.4-3c0-0.1,0-0.2,0-0.4V85h13.8c0,0.1,0,0.1,0,0.2v5.2
		c-0.1,1.8,1.3,3.3,3,3.4s3.3-1.3,3.4-3c0-0.1,0-0.2,0-0.4v-5.2c0-0.1,0-0.1,0-0.2h5.3v0.7c0,1.8,1.5,3.2,3.3,3.2
		c0.8,0,1.5-0.3,2.1-0.8v-6.8C251.4,81.1,251.4,81,251.4,80.8z"/>
</g>
<g id="ketchup">
	<path id="ketchup_x5F_drip_00000152247596342628778770000018096622606520699780_" class="st2" d="M37.2,64.1
		c-0.8,0-1.6,0.6-1.7,1.4l0,0c-0.9,0-1.7,0.8-1.7,1.7l0,0V79c0,0.9,0.8,1.7,1.7,1.7c0.9,0,1.7-0.8,1.7-1.7c0,0,0,0,0,0v-1.7
		c0.9,0,1.7-0.8,1.7-1.7l0,0v-9.9C38.9,64.8,38.2,64.1,37.2,64.1z"/>
	<path id="ketchup_x5F_drip_00000125581730468497929630000016729153855227575708_" class="st2" d="M57.6,64.6
		c-0.3,0-0.7,0.1-0.9,0.3v-1.8c-0.1-1-0.9-1.7-1.9-1.6c-0.9,0.1-1.5,0.7-1.6,1.6v9.9c0,1,0.8,1.7,1.7,1.7c0.3,0,0.7-0.1,0.9-0.3v1.8
		c0,0.9,0.8,1.7,1.7,1.7s1.7-0.8,1.7-1.7v-9.9C59.3,65.4,58.5,64.6,57.6,64.6L57.6,64.6z"/>
	<path id="ketchup_x5F_drip_00000110446588951584938320000012292321854715052470_" class="st2" d="M66.7,65.6c-1,0-1.7,0.8-1.7,1.7
		v3.9c-0.9,0-1.7,0.8-1.7,1.7l0,0v9.9c0.1,1,0.9,1.7,1.9,1.6c0.9-0.1,1.5-0.7,1.6-1.6v-3.9c0.9,0,1.7-0.8,1.7-1.7l0,0v-9.9
		C68.4,66.4,67.6,65.6,66.7,65.6z"/>
	<path id="ketchup_x5F_drip_00000017506904666289419250000002279072645780461198_" class="st2" d="M102.3,69.9L102.3,69.9
		c-0.9,0-1.7,0.8-1.7,1.7v1.7c-0.9,0-1.7,0.8-1.7,1.7l0,0v9.9c-0.1,1,0.6,1.8,1.6,1.9s1.8-0.6,1.9-1.6c0-0.1,0-0.2,0-0.3v-1.7
		c0.9,0,1.7-0.8,1.7-1.7l0,0v-9.9C104,70.6,103.2,69.9,102.3,69.9z"/>
	<path id="ketchup_x5F_drip_00000064319977631586972480000012294147980594411420_" class="st2" d="M115.2,73.3
		c-0.9,0-1.7,0.8-1.7,1.7c0,0,0,0,0,0v9.9c0,0.9,0.8,1.7,1.7,1.7c0.9,0,1.7-0.8,1.7-1.7V75C116.9,74,116.2,73.3,115.2,73.3z"/>
	<path id="ketchup_x5F_drip_00000064355790950823721650000000487895012667273405_" class="st2" d="M130.5,74.6
		c-0.9,0-1.7,0.8-1.7,1.7l0,0v11.8c0,0.9,0.8,1.7,1.7,1.7s1.7-0.8,1.7-1.7V76.3C132.2,75.3,131.4,74.6,130.5,74.6z"/>
	<path id="ketchup_x5F_drip_00000180350211409671995200000004558801239503332228_" class="st2" d="M153.6,74.8
		c-0.9,0-1.7,0.8-1.7,1.7c0,0,0,0,0,0V73c0-1-0.8-1.7-1.7-1.7l0,0c-0.9,0-1.7,0.8-1.7,1.7v9.9c0,0.9,0.8,1.7,1.7,1.7v4.9
		c-0.1,1,0.6,1.8,1.6,1.9c1,0.1,1.8-0.6,1.9-1.6c0-0.1,0-0.2,0-0.3v-1.4c0.9,0,1.7-0.8,1.7-1.7l0,0v-9.8
		C155.4,75.6,154.6,74.8,153.6,74.8C153.7,74.8,153.6,74.8,153.6,74.8z"/>
	<path id="ketchup_x5F_drip_00000137099647588028188300000011560973502254076555_" class="st2" d="M181.4,75.1V73
		c-0.1-1-0.9-1.7-1.9-1.6c-0.9,0.1-1.5,0.7-1.6,1.6v9.9c0,0.6,0.3,1.1,0.7,1.4v2.1c0.1,1,0.9,1.7,1.9,1.6c0.9-0.1,1.5-0.7,1.6-1.6
		v-9.8C182.1,76,181.9,75.5,181.4,75.1z"/>
	<path id="ketchup_x5F_drip_00000078022210799272256950000010730082790940588171_" class="st2" d="M210.9,74.8
		c-0.9,0-1.7,0.8-1.7,1.7c0,0,0,0,0,0v9.9c0,0.9,0.8,1.7,1.7,1.7s1.7-0.8,1.7-1.7v-9.9C212.6,75.6,211.9,74.8,210.9,74.8
		C210.9,74.8,210.9,74.8,210.9,74.8z"/>
	<path id="ketchup_x5F_drip_00000124156526643614872830000014529213030207496858_" class="st2" d="M241.7,64.6L241.7,64.6
		c0.9,0,1.7,0.8,1.7,1.7v9.9c0,0.9-0.8,1.7-1.7,1.7l0,0c-0.9,0-1.7-0.8-1.7-1.7v-9.9C240,65.4,240.7,64.6,241.7,64.6z"/>
	<path id="ketchup_x5F_drip" class="st2" d="M231.1,65.8v-2.5c0-0.9-0.8-1.7-1.7-1.7s-1.7,0.8-1.7,1.7v9.9c0,0.7,0.4,1.3,1.1,1.6
		v2.5c0,0.9,0.8,1.7,1.7,1.7s1.7-0.8,1.7-1.7v-9.9C232.2,66.7,231.8,66,231.1,65.8z"/>
</g>
<g id="lettuce">
	<path id="lettuce_x5F_pieces" class="st3" d="M253.9,75.3h-49.7c-0.5,0.1-1,0.1-1.4,0h-39.2c-0.2,0-0.3,0-0.5,0c-0.2,0-0.3,0-0.5,0
		h-39.2c-0.9,0-1.7,0.4-2.2,1.1h-17.7c-0.1,0-0.3,0-0.4,0h-3c-0.5-0.7-1.3-1.1-2.2-1.1H19.9c-1.2-0.2-2.4,0.6-2.6,1.8
		c-0.2,1.2,0.6,2.4,1.8,2.6c0.2,0,0.5,0,0.7,0h21.2c0.5,0.7,1.3,1.1,2.2,1.1h7c-0.1,0.2-0.1,0.4-0.1,0.6l0,0
		c0.1,1.3,1.2,2.3,2.5,2.2h6.5c1,0,2-0.6,2.4-1.5h0.3h0.2c0.9,0,1.8-0.4,2.3-1.2H82c0.5,0.7,1.3,1.1,2.2,1.1h39.2
		c0.9,0,1.7-0.4,2.2-1.1h17c0.9,0,1.7-0.4,2.2-1.1h16.1c0.1,1.3,1.2,2.3,2.6,2.2h39.2c0.6,0,1.2-0.2,1.6-0.5H219
		c0.6,0,1.2-0.2,1.7-0.6h33.2c1.3,0.1,2.4-0.9,2.6-2.2v-1.1C256.3,76.2,255.2,75.2,253.9,75.3z"/>
</g>
<g id="bun">
	<path id="bot_x5F_bun" class="st4" d="M21.6,108.7h227.6l0,0v5.9c0,5.6-4.5,10.1-10.1,10.1H31.7c-5.6,0-10.1-4.5-10.1-10.1V108.7
		L21.6,108.7z"/>
	<path id="top_x5F_bun" class="st4" d="M135.4,34.9c-62.9,0-113.8,18.7-113.8,41.8h227.6C249.2,53.6,198.3,34.9,135.4,34.9z"/>
</g>
<g id="seeds">
	<path id="seed_00000110458539702044609530000001358971452994116263_" class="st5" d="M66.8,53.6c-2,0-3.6,0.7-3.6,1.6
		s1.6,1.6,3.6,1.6s3.6-0.7,3.6-1.6S68.8,53.6,66.8,53.6z"/>
	<path id="seed_00000090274401944091189880000001935430233636219307_" class="st5" d="M86.2,48.7c0-0.9-1.6-1.6-3.6-1.6
		s-3.6,0.7-3.6,1.6s1.6,1.6,3.6,1.6S86.2,49.6,86.2,48.7z"/>
	<path id="seed_00000127755977197980898050000005742935511019436943_" class="st5" d="M107.6,62.1c-2,0-3.6,0.7-3.6,1.6
		s1.6,1.6,3.6,1.6s3.6-0.7,3.6-1.6S109.6,62.1,107.6,62.1z"/>
	<path id="seed_00000000213112069104533760000018168087384429137323_" class="st5" d="M156.7,68.6c-2,0-3.6,0.7-3.6,1.6
		s1.6,1.6,3.6,1.6s3.6-0.7,3.6-1.6S158.7,68.6,156.7,68.6z"/>
	<path id="seed_00000150798478720441252600000012337989547094674076_" class="st5" d="M138.8,47.2c-2,0-3.6,0.7-3.6,1.6
		s1.6,1.6,3.6,1.6s3.6-0.7,3.6-1.6S140.8,47.2,138.8,47.2z"/>
	<path id="seed_00000049209918377642991760000015746483188813348016_" class="st5" d="M171.3,48.7c-2,0-3.6,0.7-3.6,1.6
		s1.6,1.6,3.6,1.6s3.6-0.7,3.6-1.6S173.3,48.7,171.3,48.7z"/>
	<path id="seed_00000054959396633850936340000001827934062654931606_" class="st5" d="M204.4,63.7c-2,0-3.6,0.7-3.6,1.6
		s1.6,1.6,3.6,1.6s3.6-0.7,3.6-1.6S206.4,63.7,204.4,63.7z"/>
	<path id="seed_00000132052185637228023050000006875937865845831587_" class="st5" d="M43.8,67c-2,0-3.6,0.7-3.6,1.6
		s1.6,1.6,3.6,1.6s3.7-0.7,3.7-1.6S45.8,67,43.8,67z"/>
	<path id="seed_00000031201335178143567760000014820143346461637525_" class="st5" d="M202.5,52.2c0-0.9-1.6-1.6-3.6-1.6
		s-3.6,0.7-3.6,1.6s1.6,1.6,3.6,1.6S202.5,53.1,202.5,52.2z"/>
	<path id="seed_00000049190923773004043930000014778102380915913369_" class="st5" d="M83.6,67c-2,0-3.6,0.7-3.6,1.6
		s1.6,1.6,3.6,1.6s3.6-0.7,3.6-1.6S85.6,67,83.6,67z"/>
	<path id="seed_00000165227405805348120110000017521087632599520144_" class="st5" d="M229.9,67c-2,0-3.6,0.7-3.6,1.6
		s1.6,1.6,3.6,1.6s3.6-0.7,3.6-1.6S231.9,67,229.9,67z"/>
	<path id="seed_00000054223712892756145800000005821715636079610041_" class="st5" d="M136.9,62.1c-2,0-3.6,0.7-3.6,1.6
		s1.6,1.6,3.6,1.6s3.6-0.7,3.6-1.6S138.9,62.1,136.9,62.1z"/>
	<path id="seed_00000103223783657430378110000012325718888044457648_" class="st5" d="M113.4,47.2c-2,0-3.6,0.7-3.6,1.6
		s1.6,1.6,3.6,1.6s3.6-0.7,3.6-1.6S115.4,47.2,113.4,47.2z"/>
	<path id="seed" class="st5" d="M181.5,67.6c-2,0-3.6,0.7-3.6,1.6s1.6,1.6,3.6,1.6s3.6-0.7,3.6-1.6S183.6,67.6,181.5,67.6z"/>
</g>
<g id="cola">
	
		<rect id="pipe" x="14" y="35.3" transform="matrix(0.1822 -0.9833 0.9833 0.1822 4.9395 84.3139)" class="st6" width="78.3" height="7.8"/>
	<g id="cup">
		<path id="glass" class="st7" d="M60.4,127.1H15.6L0.1,26.2c0-3.3,2.6-5.9,5.9-5.9h60.6c3.3,0,5.9,2.6,5.9,5.9v0L60.4,127.1z"/>
		<path id="frame" class="st8" d="M72.6,26.2H0v0c0-3.4,2.8-6.2,6.2-6.2h60.2C69.8,20.1,72.6,22.8,72.6,26.2L72.6,26.2z"/>
	</g>
</g>
</svg>
